<svg width="124px" height="94px" viewBox="0 0 124 94" version="1.1" xmlns="http://www.w3.org/2000/svg" xmlns:xlink="http://www.w3.org/1999/xlink">
    <!-- Generator: Sketch 41.2 (35397) - http://www.bohemiancoding.com/sketch -->
    <title>bp-card-securecard</title>
    <desc>Created with Sketch.</desc>
    <defs></defs>
    <g id="Symbols" stroke="none" stroke-width="1" fill="none" fill-rule="evenodd">
        <g id="How-it-Works" transform="translate(-502.000000, -425.000000)">
            <g transform="translate(0.000000, 1.000000)" id="bp-card-securecard">
                <g transform="translate(503.000000, 425.000000)">
                    <path d="M7.43181818,79.2727273 C3.22045455,79.2727273 0,76.0522727 0,71.8409091 L0,7.43181818 C0,3.22045455 3.22045455,0 7.43181818,0 L74.3181818,0 L101.568182,0 C105.779545,0 109,3.22045455 109,7.43181818 L109,69.3636364 C109,74.8136364 104.540909,79.2727273 99.0909091,79.2727273 L7.43181818,79.2727273 Z" id="Shape" stroke="#D9D9D9" fill="#F9F9F9"></path>
                    <rect id="Rectangle" fill="#FFFFFF" x="1" y="20" width="107" height="13"></rect>
                    <path d="M0,19.8181818 L109,19.8181818" id="Shape" stroke="#D9D9D9" fill="#F9F9F9"></path>
                    <path d="M0,32.6363636 L109,32.6363636" id="Shape" stroke="#D9D9D9" fill="#F9F9F9"></path>
                    <path d="M9.81818182,59.4545455 L34.5909091,59.4545455" id="Shape" stroke="#CBCBCB" fill="#F9F9F9"></path>
                    <path d="M10,53 L60.5,53" id="Shape-Copy" stroke="#CBCBCB" fill="#F9F9F9"></path>
                    <g id="Group-3" opacity="0.800000012" transform="translate(68.000000, 18.000000)">
                        <rect id="Rectangle-path" stroke="#4990E2" fill="#F1F8FF" x="0.610643016" y="27.3371901" width="53.248071" height="46.6628099" rx="4"></rect>
                        <path d="M13.9226608,27.3371901 L13.9226608,14.0049587 C13.9226608,6.6722314 19.9130687,0.672727273 27.2346785,0.672727273 L27.2346785,0.672727273 C34.5562882,0.672727273 40.5466962,6.6722314 40.5466962,14.0049587 L40.5466962,27.3371901" id="Shape" stroke="#4990E2"></path>
                        <path d="M27.2346785,47.3355372 L27.2346785,54.0016529" id="Shape" stroke="#4A7AB6" fill="#F9F9F9"></path>
                    </g>
                </g>
            </g>
        </g>
    </g>
</svg>