<svg width="84px" height="114px" viewBox="0 0 84 114" version="1.1" xmlns="http://www.w3.org/2000/svg" xmlns:xlink="http://www.w3.org/1999/xlink">
    <!-- Generator: Sketch 41.2 (35397) - http://www.bohemiancoding.com/sketch -->
    <title>bp-card-spend</title>
    <desc>Created with Sketch.</desc>
    <defs></defs>
    <g id="Symbols" stroke="none" stroke-width="1" fill="none" fill-rule="evenodd">
        <g id="How-it-Works" transform="translate(-1213.000000, -414.000000)">
            <g transform="translate(0.000000, 1.000000)" id="bp-card-spend">
                <g transform="translate(1214.000000, 414.000000)">
                    <path d="M15.375,86.5454545 C6.91875,86.5454545 0,79.6727273 0,71.2727273 L0,0 L82,0 L82,71.2727273 C82,79.6727273 75.08125,86.5454545 66.625,86.5454545 L16.5,86.5" id="Shape" stroke="#D9D9D9" fill="#F9F9F9"></path>
                    <path d="M66.625,109.005467 C66.625,110.659302 65.2805299,112 63.6292641,112 L18.3707359,112 C16.7162367,112 15.375,110.664473 15.375,109.005467 L15.375,61.0909091 L66.625,61.0909091 L66.625,109.005467 Z" id="Shape" stroke="#4990E2" fill="#F1F8FF" opacity="0.800000012"></path>
                    <polygon id="Shape" stroke="#D9D9D9" fill="#FFFFFF" points="71.625 43.2727273 11 43.2727273 11 9 11 9 71.625 9"></polygon>
                    <path d="M30.75,61.0909091 L30.75,112" id="Shape" stroke="#4990E2" fill="#F1F8FF"></path>
                    <path d="M51.25,86.5454545 L51.25,96.7272727" id="Shape" stroke="#6FA4E5"></path>
                </g>
            </g>
        </g>
    </g>
</svg>