<svg width="136px" height="102px" viewBox="0 0 136 102" version="1.1" xmlns="http://www.w3.org/2000/svg" xmlns:xlink="http://www.w3.org/1999/xlink">
    <!-- Generator: Sketch 41.2 (35397) - http://www.bohemiancoding.com/sketch -->
    <title>bp-card-cart</title>
    <desc>Created with Sketch.</desc>
    <defs></defs>
    <g id="Symbols" stroke="none" stroke-width="1" fill="none" fill-rule="evenodd">
        <g id="How-it-Works" transform="translate(-116.000000, -415.000000)">
            <g transform="translate(0.000000, 1.000000)" id="bp-card-cart">
                <g transform="translate(116.000000, 415.000000)">
                    <polyline id="Stroke-119" stroke="#D9D9D9" points="32 0 45.7333333 0 45.7333333 68.6666667 131.566667 68.6666667"></polyline>
                    <path d="M52.6,78.4 C58.2890333,78.4 62.9,83.0109667 62.9,88.7 C62.9,94.3890333 58.2890333,99 52.6,99 C46.9109667,99 42.3,94.3890333 42.3,88.7 C42.3,83.0109667 46.9109667,78.4 52.6,78.4 L52.6,78.4 Z" id="Stroke-120" stroke="#D9D9D9" fill="#F9F9F9"></path>
                    <path d="M124.7,79.4 C130.389033,79.4 135,84.0109667 135,89.7 C135,95.3890333 130.389033,100 124.7,100 C119.010967,100 114.4,95.3890333 114.4,89.7 C114.4,84.0109667 119.010967,79.4 124.7,79.4 L124.7,79.4 Z" id="Stroke-121" stroke="#D9D9D9" fill="#F9F9F9"></path>
                    <polyline id="Stroke-122" stroke="#D9D9D9" fill="#F9F9F9" points="45.7333333 13.7333333 124.7 13.7333333 114.4 54.9333333 45.7333333 54.9333333"></polyline>
                    <path d="M76,29.5 L0.5,29.5" id="Line" stroke="#98C6FF" stroke-linecap="square"></path>
                    <path d="M83.5,39.5 L20.5,39.5" id="Line-Copy-5" stroke="#98C6FF" stroke-linecap="square"></path>
                </g>
            </g>
        </g>
    </g>
</svg>